# xmcd CD database file
#
# Track frame offsets:
#	150
#	16280
#	35572
#	53147
#	71050
#	93407
#	109025
#	128360
#	164710
#
# Disc length: 2623 seconds
#
# Revision: 0
# Processed by: cddbd v1.5.1PL0 Copyright (c) Steve Scherf et al.
# Submitted via: CDex 1.60beta1
#
DISCID=730a3d09
DTITLE=JAGUAR - Time Machine
DYEAR=2005
DGENRE=Rock
TTITLE0=JAGUARさん！
TTITLE1=ファイト！ファイト！ちば！
TTITLE2=メリーのために
TTITLE3=赤いルージュ
TTITLE4=小さな夢を無くさないで
TTITLE5=Time Machine
TTITLE6=波の彼方に
TTITLE7=抱きしめて
TTITLE8=“ファイト！ファイト！ちば！”プロモーションビデオ(CDエキストラ)
EXTD=YEAR: 2005
EXTT0=
EXTT1=
EXTT2=
EXTT3=
EXTT4=
EXTT5=
EXTT6=
EXTT7=
EXTT8=
PLAYORDER=
